<mxfile host="app.diagrams.net" modified="2024-04-28T02:48:53.592Z" agent="Mozilla/5.0 (Windows NT 10.0; Win64; x64; rv:125.0) Gecko/20100101 Firefox/125.0" version="24.3.1" etag="bJmzZriksPcbEI08vOKA" type="github">
  <diagram name="第 1 页" id="OroEbo11mMY1ZGFCGmUk">
    <mxGraphModel>
      <root>
        <mxCell id="0" />
        <mxCell id="1" parent="0" />
      </root>
    </mxGraphModel>
  </diagram>
</mxfile>
